<?xml version="1.0" standalone="no"?>
<!DOCTYPE svg PUBLIC "-//W3C//DTD SVG 20010904//EN"
 "http://www.w3.org/TR/2001/REC-SVG-20010904/DTD/svg10.dtd">
<svg version="1.0" xmlns="http://www.w3.org/2000/svg"
 width="300.000000pt" height="172.000000pt" viewBox="0 0 300.000000 172.000000"
 preserveAspectRatio="xMidYMid meet">
<metadata>
Created by potrace 1.10, written by Peter Selinger 2001-2011
</metadata>
<g transform="translate(0.000000,172.000000) scale(0.100000,-0.100000)"
fill="#000000" stroke="none">
<path d="M754 1679 c-154 -26 -286 -99 -414 -228 -77 -77 -105 -113 -142 -186
-222 -432 -64 -962 347 -1166 164 -80 146 -79 952 -79 792 0 787 0 931 66 385
176 571 628 431 1049 -73 220 -251 416 -450 496 -139 55 -98 53 -879 55 -399
1 -748 -2 -776 -7z m1535 -24 c35 -9 101 -33 145 -54 84 -39 240 -156 230
-172 -13 -21 -58 -6 -117 39 -90 69 -144 98 -249 134 l-93 33 -705 0 -705 0
-90 -32 c-258 -90 -441 -278 -517 -533 -31 -103 -35 -283 -10 -391 22 -92 58
-182 93 -230 20 -29 21 -31 3 -44 -17 -12 -16 -13 9 -8 16 3 27 1 27 -5 0 -6
27 -40 60 -75 56 -61 59 -65 38 -71 -41 -11 -47 -7 -108 70 -74 92 -121 183
-157 301 -23 77 -26 106 -27 233 -1 160 15 235 74 366 81 180 258 348 430 409
123 44 112 44 875 44 617 1 740 -2 794 -14z m-319 -44 c41 -21 83 -78 104
-139 l15 -44 -49 -52 c-42 -45 -75 -106 -56 -106 18 0 66 32 85 56 12 15 21
21 21 15 0 -35 -25 -104 -46 -126 -13 -14 -19 -25 -14 -25 5 0 12 5 15 10 9
15 25 12 25 -5 0 -8 4 -15 9 -15 5 0 7 19 4 42 -4 30 -3 39 6 34 6 -4 8 -18 5
-33 -5 -17 -3 -24 4 -19 6 4 9 48 6 123 l-4 117 38 -36 c40 -39 72 -58 96 -58
12 0 8 12 -16 48 -45 68 -87 110 -123 122 -17 6 -39 24 -49 42 -22 36 -18 35
77 -35 85 -62 217 -203 217 -232 0 -11 -16 -45 -35 -75 -35 -55 -43 -101 -27
-158 10 -36 25 -29 52 23 17 33 26 71 30 124 l5 76 58 -89 c31 -49 57 -92 57
-96 0 -3 -14 -19 -30 -35 -41 -40 -54 -92 -40 -161 7 -34 16 -54 23 -51 23 7
67 108 68 156 l1 46 18 -40 c15 -34 16 -49 8 -102 -12 -73 -4 -127 23 -154 27
-27 43 -13 58 47 14 55 1 115 -33 148 -12 13 -35 52 -50 87 -16 35 -36 74 -44
87 -17 26 -15 26 29 8 19 -8 63 -17 99 -20 l65 -7 -45 41 c-48 43 -88 56 -149
47 -34 -4 -40 -1 -55 23 -9 16 -36 53 -61 84 -25 30 -45 58 -45 61 0 4 17 -7
38 -23 56 -44 154 -90 229 -108 37 -8 93 -30 125 -47 56 -31 59 -35 79 -97 34
-109 45 -218 31 -325 -41 -322 -258 -572 -573 -662 -58 -16 -111 -18 -610 -18
l-546 0 -36 28 c-40 30 -97 119 -97 151 0 11 18 41 39 67 72 85 62 136 -13 65
l-36 -33 0 31 c0 17 9 51 20 75 13 27 15 39 7 32 -8 -6 -17 -8 -20 -4 -4 3 -7
-8 -7 -25 0 -18 -4 -32 -10 -32 -14 0 -12 46 3 58 6 6 25 14 40 17 32 8 45 31
29 47 -8 8 -18 8 -34 0 -13 -6 -17 -11 -10 -11 7 -1 10 -5 7 -11 -3 -5 -26
-10 -50 -10 -128 0 -198 216 -103 318 37 38 128 23 128 -22 0 -19 -22 -36 -46
-36 -25 0 -45 21 -26 28 24 8 11 23 -15 20 -22 -2 -28 -8 -28 -28 0 -21 7 -27
45 -36 l45 -11 -26 -16 c-32 -21 -71 -91 -67 -119 3 -26 36 -37 49 -16 13 19
11 28 -6 28 -33 0 -12 43 50 108 69 71 76 89 46 116 -46 42 -139 39 -190 -7
-73 -67 -66 -210 15 -291 31 -30 81 -56 111 -56 15 0 19 -8 19 -42 0 -24 3
-80 6 -124 l5 -81 -43 32 c-41 32 -91 51 -102 41 -12 -13 96 -122 143 -145 28
-13 61 -38 74 -54 l24 -29 -32 17 c-112 58 -296 207 -307 249 -4 16 5 45 26
87 24 47 31 71 27 98 -7 51 -25 93 -37 86 -21 -13 -53 -146 -47 -196 4 -27 2
-47 -2 -44 -5 2 -35 39 -67 81 -49 64 -56 78 -46 92 43 59 52 80 52 121 0 50
-19 121 -32 121 -18 0 -58 -105 -58 -155 l-1 -50 -20 39 c-17 31 -19 49 -14
96 8 69 -8 134 -38 155 -20 14 -23 14 -34 -1 -16 -22 -26 -88 -18 -125 4 -17
20 -46 37 -64 23 -27 128 -191 128 -200 0 -2 -17 3 -37 11 -21 7 -67 13 -103
14 l-65 0 30 -24 c58 -47 101 -61 156 -49 46 9 51 8 67 -13 9 -12 42 -50 72
-85 l55 -62 -41 26 c-67 42 -157 76 -241 90 -43 8 -101 26 -129 40 -44 22 -54
34 -77 84 -62 139 -80 341 -43 488 80 314 348 552 659 585 40 4 299 8 577 9
474 1 507 0 540 -18z m270 -8 c108 -25 231 -88 320 -163 l25 -22 -45 7 c-24 3
-64 19 -89 35 -24 16 -59 32 -78 36 -18 3 -68 26 -110 50 -43 24 -99 51 -125
60 -26 8 -48 18 -48 20 0 6 74 -5 150 -23z m-47 -40 c124 -59 137 -73 70 -73
-42 0 -61 7 -114 42 -35 23 -82 52 -104 66 l-40 24 45 -6 c25 -4 89 -28 143
-53z m-66 -79 c33 -25 89 -102 80 -110 -7 -8 -97 78 -113 107 -18 36 -11 36
33 3z m280 -15 l28 -11 -35 -13 c-56 -21 -110 -18 -155 10 l-40 24 87 1 c48 0
99 -5 115 -11z m107 -55 c32 -7 64 -10 71 -8 15 6 135 -137 135 -161 0 -4 -30
-5 -67 -2 -76 6 -191 38 -158 44 56 10 105 27 105 36 0 6 -33 8 -94 4 l-94 -6
-58 40 c-80 55 -83 59 -43 53 19 -3 52 1 74 10 22 8 47 12 55 9 8 -3 41 -12
74 -19z m199 -36 c79 -98 145 -251 167 -391 17 -102 7 -269 -20 -366 -63 -222
-218 -414 -413 -510 -162 -79 -122 -76 -942 -76 -681 0 -735 1 -800 19 -91 24
-195 74 -268 128 l-59 43 35 8 c31 8 41 4 84 -27 69 -49 163 -92 257 -116 76
-19 109 -20 746 -20 631 0 671 1 746 20 283 71 502 292 575 580 18 72 21 103
16 215 -5 132 -18 189 -66 299 -17 39 -19 51 -9 58 9 5 6 8 -9 8 -13 0 -23 4
-23 9 0 5 -24 41 -54 79 -51 66 -53 71 -33 75 12 2 25 5 29 6 4 0 22 -18 41
-41z m-638 -18 c-16 -30 -61 -67 -71 -57 -7 6 65 87 77 87 5 0 3 -13 -6 -30z
m460 -50 c-11 -5 -33 -9 -50 -9 -26 0 -27 2 -10 9 11 5 34 9 50 9 26 0 27 -2
10 -9z m-188 -102 c-3 -29 -15 -75 -28 -103 l-22 -50 -8 34 c-4 19 -5 41 -2
50 6 22 57 121 62 121 2 0 1 -24 -2 -52z m397 7 c4 -13 2 -13 -14 -5 -30 16
-34 12 -9 -11 l24 -20 -27 17 c-15 9 -25 20 -22 25 9 15 41 10 48 -6z m-149
-56 c33 -23 34 -24 12 -27 -32 -4 -130 30 -135 47 -7 22 82 8 123 -20z m-108
-144 c-6 -64 -44 -145 -58 -124 -19 30 -10 104 18 146 15 23 31 39 36 36 5 -3
7 -29 4 -58z m110 -138 c3 -18 0 -53 -7 -77 l-12 -45 -19 24 c-14 17 -19 39
-19 83 0 68 17 97 38 67 7 -11 16 -34 19 -52z m-2139 -89 c5 -81 -2 -84 -24
-11 -11 39 -13 41 -10 13 2 -19 8 -44 12 -55 6 -19 6 -19 -10 -4 -21 19 -31
84 -21 135 l6 37 22 -21 c17 -17 22 -37 25 -94z m125 -84 c0 -38 -6 -60 -23
-84 l-23 -33 -9 24 c-12 30 -2 101 20 146 14 29 17 31 25 17 6 -10 10 -41 10
-70z m146 -149 c0 -22 -11 -62 -24 -90 l-23 -50 -1 51 c-1 63 27 164 40 143 5
-8 8 -32 8 -54z m-199 -53 l35 -16 -49 -4 c-52 -3 -97 10 -118 35 -11 14 -6
15 42 8 30 -4 71 -14 90 -23z m-38 -104 l53 -11 -35 -15 c-91 -38 -89 -36 -45
-40 22 -2 64 2 94 9 52 12 56 12 106 -15 29 -16 62 -36 75 -46 l22 -17 -30 5
c-17 2 -49 -4 -73 -15 -32 -14 -52 -17 -74 -11 -16 4 -54 9 -83 9 -51 1 -53 2
-117 71 -36 39 -65 74 -65 79 0 13 110 11 172 -3z m525 -20 c-28 -40 -67 -83
-67 -75 0 22 31 76 51 90 29 21 36 14 16 -15z m-452 -17 c-6 -5 -28 -12 -50
-15 l-40 -6 30 15 c34 16 74 20 60 6z m371 -125 c39 -45 38 -54 -3 -33 -26 14
-52 39 -98 96 l-20 24 44 -24 c24 -13 59 -42 77 -63z m-133 -3 l32 -17 -70
-11 c-46 -8 -84 -9 -113 -2 l-45 9 39 18 c50 23 116 25 157 3z m-223 -14 c8
-12 76 -39 100 -39 11 0 43 -11 70 -25 27 -13 82 -36 122 -50 l73 -26 -75 6
c-98 9 -233 53 -320 104 -39 23 -70 44 -70 48 0 8 94 -8 100 -18z m375 -85
c55 -30 92 -54 83 -54 -43 0 -131 25 -218 63 -93 41 -94 42 -60 48 55 10 88 0
195 -57z"/>
<path d="M1382 1293 c3 -20 -13 -20 -143 -7 -71 7 -106 -4 -142 -44 -26 -29
-19 -76 11 -80 23 -4 52 13 52 29 0 5 -7 6 -15 3 -11 -5 -15 1 -15 20 0 34 46
58 103 54 33 -2 42 -7 41 -20 -2 -15 4 -17 40 -12 63 10 95 31 96 62 0 6 -7
12 -15 12 -10 0 -15 -7 -13 -17z"/>
<path d="M1231 1245 c-23 -13 -23 -16 -22 -137 2 -135 -1 -153 -31 -169 -15
-8 -22 -7 -32 7 -7 9 -18 14 -24 10 -17 -10 -15 -24 7 -35 20 -11 91 4 91 19
0 5 15 7 33 3 30 -6 31 -5 17 12 -12 14 -15 49 -15 162 0 78 0 143 0 142 0 -1
-11 -7 -24 -14z"/>
<path d="M1384 1207 c-22 -19 -28 -34 -32 -79 -6 -77 12 -125 53 -145 31 -15
36 -15 60 1 69 45 71 182 4 230 -32 22 -53 20 -85 -7z m78 -47 c20 -39 24
-111 8 -141 -36 -66 -102 61 -78 148 12 46 46 42 70 -7z"/>
<path d="M1598 1173 c2 -32 0 -88 -5 -125 -9 -66 -9 -68 13 -68 18 0 22 5 21
28 -1 15 0 59 2 97 l2 70 26 -57 c14 -32 29 -58 33 -58 4 0 18 26 33 58 l25
57 3 -70 c2 -38 3 -82 2 -97 -1 -24 3 -28 28 -28 27 0 27 1 18 29 -6 16 -9 73
-7 126 l3 96 -25 -6 c-14 -4 -26 -7 -26 -8 -1 -1 -11 -21 -23 -44 -12 -24 -23
-43 -26 -43 -2 0 -13 20 -24 45 -11 25 -27 45 -35 45 -8 0 -21 2 -28 5 -12 5
-14 -6 -10 -52z"/>
<path d="M1870 1215 c7 -9 10 -54 8 -124 l-3 -111 25 0 25 0 0 123 0 123 -33
1 c-26 1 -31 -2 -22 -12z"/>
<path d="M1045 706 l0 -124 33 0 c25 0 31 3 23 11 -6 6 -11 42 -11 80 0 58 2
68 14 58 22 -18 58 -110 51 -131 -5 -15 0 -18 29 -18 l34 0 -21 47 c-11 25
-27 56 -35 69 -13 19 -13 22 1 22 17 0 47 37 47 57 0 7 -9 22 -20 33 -16 16
-33 20 -82 20 l-63 0 0 -124z m103 88 c18 -12 20 -19 12 -35 -13 -23 -28 -24
-52 -2 -42 38 -8 71 40 37z"/>
<path d="M1312 824 c-43 -18 -57 -145 -22 -201 37 -61 108 -53 137 14 19 48
13 125 -14 161 -20 26 -69 39 -101 26z m53 -31 c24 -24 35 -58 35 -112 0 -79
-45 -95 -78 -28 -16 34 -18 123 -2 142 16 19 25 19 45 -2z"/>
<path d="M1537 812 c-52 -58 -46 -191 11 -221 45 -24 112 0 112 40 0 25 -12
24 -28 -1 -16 -26 -44 -25 -68 1 -28 31 -26 131 3 160 25 25 55 19 71 -14 10
-20 11 -19 11 16 l1 37 -48 0 c-34 0 -54 -5 -65 -18z"/>
<path d="M1718 818 c14 -14 17 -191 3 -217 -9 -15 -5 -17 24 -17 36 1 34 -8
21 101 -5 35 -5 35 36 35 l40 0 -4 -67 -3 -68 32 -1 c25 0 30 2 22 12 -6 8 -9
57 -7 123 l3 111 -34 0 c-27 0 -32 -3 -23 -12 7 -7 12 -21 12 -33 0 -18 -5
-20 -40 -17 -22 2 -40 6 -40 7 0 2 4 15 10 29 9 25 8 26 -27 26 -29 0 -34 -3
-25 -12z"/>
<path d="M1958 818 c8 -8 12 -48 12 -113 0 -65 -4 -105 -12 -113 -9 -9 5 -12
64 -12 l76 0 4 29 c4 28 3 29 -16 15 -11 -8 -33 -14 -48 -14 -28 0 -28 1 -28
64 l0 65 30 -11 c23 -7 34 -7 45 2 24 20 18 25 -30 25 -42 0 -45 2 -45 28 0
21 5 27 21 27 11 0 29 -4 39 -10 14 -7 19 -5 23 10 5 19 0 20 -71 20 -59 0
-73 -3 -64 -12z"/>
<path d="M2158 801 l-4 -30 24 20 c14 10 29 19 33 19 12 0 11 -187 0 -209 -8
-15 -5 -17 25 -17 28 0 33 3 27 16 -11 23 -16 191 -5 202 5 5 19 1 33 -11 l25
-20 -4 30 -4 29 -73 0 -73 0 -4 -29z"/>
<path d="M2384 804 c-16 -24 -16 -29 -3 -52 8 -15 34 -40 57 -55 35 -24 43
-34 40 -56 -5 -47 -86 -31 -89 18 0 9 -5 3 -11 -13 -9 -26 -8 -32 12 -48 32
-26 76 -23 105 7 43 42 28 78 -60 141 -25 18 -28 25 -19 40 16 27 40 28 64 4
l21 -21 -3 28 c-3 26 -7 28 -50 31 -41 3 -49 0 -64 -24z"/>
<path d="M2562 910 c0 -14 4 -36 8 -50 8 -24 8 -24 8 5 0 17 -3 39 -8 50 -8
18 -9 18 -8 -5z"/>
</g>
</svg>
